<?xml version="1.0" encoding="UTF-8"?>
<svg version="1.1" viewBox="0 0 1600 1232" width="1280" height="1280" xmlns="http://www.w3.org/2000/svg">
<path transform="translate(0)" d="m0 0h1600v1232h-1600v-1232z" fill="#FBFDFD"/>
<path transform="translate(472 424)" d="m0 0h2.26c0.86-0 1.72-0.01 2.61-0.01 0.95 0 1.9 0.01 2.88 0.01 1-0 2.01-0 3.05-0.01 3.39 0 6.78 0.01 10.2 0.02 2.42 0 4.84-0.01 7.27-0.01 5.9-0 11.8 0 17.7 0.01 6.88 0.01 13.8 0.01 20.6 0.01 12.3 0 24.5 0.01 36.8 0.02 11.9 0.02 23.8 0.02 35.7 0.02h2.22 2.22c13.5 0 27.1 0.01 40.6 0.02h14.4c6.45 0 12.9 0.01 19.4 0.02h7.13c3.23 0 6.45 0.01 9.68 0.02 0.95-0.01 1.91-0.01 2.89-0.01 6.44 0.03 6.44 0.03 7.56 1.14 0.08 1.42 0.1 2.84 0.09 4.25 0 0.86 0 1.71-0.01 2.59-0.01 0.9-0.01 1.8-0.02 2.72-0.01 0.9-0.01 1.81-0.02 2.73-0.01 2.24-0.02 4.47-0.04 6.71-1.16 0-2.31 0.01-3.5 0.01-27.4 0.1-54.7 0.21-82.1 0.32-3.37 0.01-6.73 0.03-10.1 0.04-1.01 0.01-1.01 0.01-2.03 0.01-10.9 0.04-21.7 0.08-32.6 0.12-11.1 0.04-22.3 0.09-33.4 0.14-6.25 0.02-12.5 0.05-18.8 0.07-5.89 0.02-11.8 0.04-17.6 0.07-2.16 0.01-4.33 0.02-6.49 0.02-2.95 0.01-5.89 0.03-8.83 0.04h-2.63c-3.81-0.34-3.81-0.34-6.99 1.16-0.17 2.31-0.26 4.6-0.32 6.92-0.02 0.73-0.04 1.47-0.06 2.23-0.07 2.49-0.12 4.98-0.18 7.48-0.02 0.87-0.04 1.74-0.06 2.64-0.54 22.8-0.54 45.7-0.51 68.6 0 6.04 0 12.1-0.01 18.1v14.1 6.69c0 3.07 0 6.14 0.01 9.21-0.01 0.92-0.01 1.83-0.01 2.78-0.39 3.99-0.39 3.99 1.14 7.34 2.7 0.11 5.38 0.15 8.08 0.15 0.86 0.01 1.72 0.01 2.6 0.01 2.9 0.02 5.79 0.02 8.69 0.03 2.07 0.01 4.14 0.02 6.2 0.02 4.47 0.02 8.93 0.04 13.4 0.05 7.05 0.02 14.1 0.05 21.2 0.08 15 0.06 29.9 0.11 44.9 0.16 16.2 0.05 32.3 0.11 48.4 0.18 7.01 0.03 14 0.05 21 0.07 4.36 0.01 8.71 0.03 13.1 0.05 2.02 0.01 4.05 0.01 6.08 0.02 2.76 0 5.51 0.01 8.27 0.03h2.46c5.51 0.04 5.51 0.04 6.63 1.15 0.08 1.42 0.1 2.84 0.09 4.25 0 0.86 0 1.71-0.01 2.59-0.01 0.9-0.01 1.8-0.02 2.72-0.01 0.9-0.01 1.81-0.02 2.73-0.01 2.24-0.02 4.47-0.04 6.71-1.09 0-2.18 0.01-3.3 0.01-26.4 0.11-52.8 0.21-79.2 0.33-12.8 0.05-25.5 0.11-38.3 0.16-11.1 0.04-22.2 0.09-33.4 0.14-5.9 0.02-11.8 0.05-17.7 0.07-5.54 0.02-11.1 0.04-16.6 0.07-2.04 0.01-4.08 0.02-6.12 0.02-2.77 0.01-5.54 0.03-8.31 0.04h-2.48c-3.63-0.31-3.63-0.31-6.65 1.16-0.1 2.05-0.13 4.1-0.13 6.15 0 0.97 0 0.97-0.01 1.97 0 2.19 0 4.38 0.01 6.57-0.01 1.57-0.01 3.13-0.01 4.7v12.8 13.4c0 7.47 0 15 0.01 22.4 0 8.66 0 17.3-0.01 26v22.2 13.3 12.5c0.01 1.53 0 3.07 0 4.6 0 2.09 0 4.17 0.01 6.26v3.55c-0.17 2.53-0.17 2.53 1.13 3.6 2.9 0.11 5.78 0.15 8.69 0.15 0.92 0.01 1.84 0.01 2.8 0.01 3.11 0.02 6.23 0.02 9.35 0.03 2.22 0.01 4.45 0.02 6.67 0.02 4.81 0.02 9.61 0.04 14.4 0.05 7.59 0.02 15.2 0.05 22.8 0.08 10.6 0.04 21.3 0.07 31.9 0.11h2.05c4.79 0.02 9.58 0.03 14.4 0.05 5.47 0.02 10.9 0.03 16.4 0.05 0.67 0 1.35 0.01 2.04 0.01 11.2 0.03 22.4 0.07 33.7 0.12 7.55 0.03 15.1 0.05 22.6 0.07 4.69 0.01 9.38 0.03 14.1 0.05 2.19 0.01 4.37 0.01 6.55 0.02 2.97 0 5.94 0.01 8.9 0.03h2.66c5.92 0.04 5.92 0.04 7.04 1.15 0.08 1.42 0.1 2.84 0.09 4.25 0 0.86 0 1.71-0.01 2.59-0.01 0.9-0.01 1.8-0.02 2.72-0.01 0.9-0.01 1.81-0.02 2.73-0.01 2.24-0.02 4.47-0.04 6.71-31.8-0.11-63.7-0.21-95.5-0.33-3.75-0.02-7.51-0.03-11.3-0.04-1.12-0.01-1.12-0.01-2.27-0.01-12.1-0.05-24.2-0.09-36.4-0.13-12.4-0.04-24.8-0.08-37.3-0.13-7.68-0.03-15.4-0.05-23-0.08-5.87-0.01-11.8-0.04-17.6-0.06-2.42-0.01-4.83-0.02-7.25-0.02-3.29-0.01-6.57-0.03-9.85-0.04-1.46 0-1.46 0-2.94-0.01-0.88 0-1.75-0.01-2.65-0.01-1.14-0.01-1.14-0.01-2.3-0.01-1.72-0.13-1.72-0.13-2.72-1.13-0.1-1.95-0.13-3.91-0.13-5.87-0.01-1.28-0.01-2.56-0.01-3.88v-4.33c0-1.52 0-3.03-0.01-4.55v-12.6c0-4.51-0.01-9.02-0.01-13.5-0.01-8.85-0.01-17.7-0.01-26.5 0-7.19 0-14.4-0.01-21.6-0.01-20.4-0.01-40.7-0.01-61v-3.33-3.33c0-17.8-0.01-35.7-0.02-53.5-0.02-18.3-0.02-36.6-0.02-54.8 0-10.3-0.01-20.5-0.02-30.8-0.01-8.74-0.01-17.5 0-26.2 0-4.47 0-8.94-0.01-13.4 0-4.08 0-8.17 0.01-12.2 0-1.48 0-2.96-0.01-4.45-0.01-2 0-4.01 0.01-6.01v-3.38c0.29-3.05 0.87-4.42 4.07-4.86z" fill="#0A0B0D"/>
<path transform="translate(1143,248)" d="m0 0 1 2c-1.18 2.23-2.4 4.31-3.75 6.44-0.36 0.58-0.72 1.17-1.09 1.77-1.84 2.93-3.71 5.38-6.16 7.79-1.02 1.65-2.02 3.32-3 5-1.4 2.07-2.82 4.13-4.25 6.19-0.59 0.85-0.59 0.85-1.19 1.71-3 4.31-6.02 8.6-9.05 12.9-1.59 2.27-1.59 2.27-3.08 5-0.47 0.73-0.94 1.47-1.43 2.22h-2c-0.36 1.02-0.36 1.02-0.72 2.05-1.57 3.62-3.57 6.78-5.72 10.1-0.39 0.63-0.79 1.25-1.19 1.88-1.92 2.97-3.85 5.54-6.37 8-1.26 1.81-2.49 3.65-3.69 5.5-2.69 4.1-5.45 8.12-8.37 12.1-3.32 4.51-6.33 9.15-9.3 13.9-1.88 2.92-3.93 5.65-6.05 8.4-2.67 3.61-5.1 7.38-7.58 11.1-3.45 5.19-7.05 10.3-10.6 15.3-3.52 4.98-6.93 10-10.3 15.1-3.69 5.57-7.49 11-11.5 16.4-1.24 1.69-2.43 3.42-3.59 5.17h-2c-0.31 1.21-0.31 1.21-0.62 2.44-1.79 4.61-4.24 8.72-7.38 12.6h-2c-0.29 0.74-0.58 1.49-0.88 2.25-0.94 2.32-1.97 4.53-3.12 6.75h-2c-0.39 1.08-0.39 1.08-0.79 2.19-1.26 2.93-2.77 5.23-4.65 7.81-1.85 2.57-3.59 5.06-5.16 7.81-0.46 0.72-0.92 1.45-1.4 2.19h-2c-0.31 1.21-0.31 1.21-0.62 2.44-1.79 4.61-4.24 8.72-7.38 12.6h-2c-0.25 0.71-0.5 1.43-0.76 2.16-1.37 3.13-3.06 5.55-5.12 8.28-3.43 4.63-6.7 9.3-9.77 14.2-0.61 0.97-1.22 1.94-1.85 2.93-0.57 0.91-1.13 1.82-1.72 2.76-1.78 2.68-1.78 2.68-3.78 5.18-2.05 2.57-3.77 5.2-5.5 8-2.3 3.72-4.76 7.1-7.5 10.5l-1.06 2.12c-0.94 1.88-0.94 1.88-2.36 3.29-2.58 2.59-4.41 5.73-6.39 8.78-3.23 4.92-6.5 9.72-10.2 14.3-1.23 1.64-1.23 1.64-0.96 4.52-0.99 0.33-1.98 0.66-3 1-1.3 1.6-1.3 1.6-2.41 3.6-0.43 0.72-0.87 1.43-1.31 2.18s-0.89 1.5-1.34 2.28c-0.88 1.5-1.77 2.99-2.66 4.48-0.39 0.66-0.78 1.32-1.18 2.01-0.36 0.48-0.73 0.96-1.1 1.45h-2c-0.27 0.73-0.54 1.46-0.81 2.21-1.17 2.74-2.51 4.97-4.19 7.41-0.52 0.76-1.03 1.52-1.56 2.29-0.48 0.69-0.95 1.38-1.44 2.09-2.25 2.73-2.25 2.73-1.86 5.38 1.04 3.16 2.52 5.03 4.67 7.56 3.01 3.55 5.63 7.17 8.19 11.1 0.85 1.2 1.71 2.39 2.58 3.58 0.44 0.6 0.87 1.2 1.33 1.83 0.9 1.24 1.82 2.49 2.73 3.73 3.36 4.64 3.36 4.64 3.36 6.86h2c2.41 2.84 4.29 6.02 6.25 9.19 2.77 4.39 5.74 8.48 8.97 12.5 1.98 2.52 3.86 5.1 5.72 7.71 0.58 0.82 1.17 1.64 1.77 2.49 1.29 2.07 1.29 2.07 1.29 4.07 0.99 0.33 1.98 0.66 3 1 1.4 1.94 1.4 1.94 2.94 4.56 3.1 5.05 6.47 9.78 10.1 14.5 3.84 5.07 7.62 10.2 11.2 15.4 6.03 8.69 12.2 17.2 18.6 25.7 5.89 7.84 11.6 15.8 17.2 23.9 0.58 0.84 1.17 1.69 1.77 2.55 0.55 0.81 1.1 1.62 1.67 2.45 0.49 0.72 0.98 1.44 1.49 2.19 1.07 1.81 1.07 1.81 1.07 3.81 0.6 0.25 1.2 0.5 1.82 0.75 2.55 1.46 3.45 2.77 4.99 5.25 2.81 4.43 5.8 8.69 8.87 12.9 1.32 2.07 1.32 2.07 1.32 4.07-4.36 0.09-8.71 0.09-13.1 0.06-1.23 0.03-2.46 0.06-3.73 0.09-8.99-0.12-8.99-0.12-12.6-3.14-1.76-2.26-3.22-4.52-4.64-7.01-0.68-0.83-1.36-1.65-2.06-2.5-2.3-2.97-4.34-6.07-6.38-9.22-1.73-2.53-3.63-4.89-5.56-7.28-5.44-7.28-10.6-14.7-15.9-22.2-0.49-0.7-0.98-1.4-1.48-2.12-0.46-0.65-0.92-1.31-1.4-1.98-1-1.4-2.04-2.76-3.1-4.12-1.14-1.62-1.14-1.62-1.14-3.62h-2c-1.3-1.84-1.3-1.84-2.88-4.5-3.02-4.89-6.27-9.49-9.74-14.1-6.12-8.06-12-16.2-17.9-24.4-1.95-2.69-3.91-5.37-5.88-8.05-2.88-3.94-5.6-7.96-8.24-12.1-1.3-1.85-2.71-3.3-4.32-4.88-1.97-2.84-3.82-5.7-5.56-8.69-1.28-2.26-1.28-2.26-2.8-3.64-2.05-2.09-3.68-4.35-5.39-6.73-0.7-0.98-1.41-1.95-2.13-2.96-1.96-2.75-3.89-5.52-5.81-8.29-2.6-3.74-5.32-7.25-8.31-10.7-3.67 3.29-5.86 7.52-8.38 11.7-0.53 0.76-1.07 1.52-1.62 2.3h-2c-0.23 0.68-0.45 1.36-0.69 2.06-1.62 3.64-3.64 6.97-6.31 9.94h-2c-0.25 0.7-0.5 1.4-0.75 2.12-2.32 5.34-5.92 9.81-9.42 14.4-2.3 3.1-4.53 6.25-6.77 9.4-3.36 4.73-6.81 9.36-10.4 13.9-4.82 6.26-9.17 12.8-13.4 19.5-0.41 0.54-0.83 1.07-1.26 1.62h-2c-0.25 0.71-0.5 1.42-0.75 2.15-1.39 3.17-3.12 5.64-5.19 8.41-0.69 0.93-1.38 1.86-2.09 2.82-0.65 0.86-1.3 1.73-1.97 2.62-0.81 1.16-0.81 1.16-1.63 2.34-0.45 0.55-0.9 1.1-1.37 1.66h-2c-0.21 0.83-0.41 1.65-0.62 2.5-1.73 4.39-4.15 8.05-7.38 11.5h-2c-0.26 0.72-0.52 1.45-0.79 2.19-1.25 2.9-2.73 5.19-4.59 7.75-2.05 2.86-4.06 5.71-5.93 8.68-0.56 0.79-1.12 1.57-1.69 2.38h-2c-0.99 2.47-0.99 2.47-2 5h-2c0.5 1.49 0.5 1.49 1 3-0.93 0.9-0.93 0.9-1.88 1.81-2.26 2.2-2.26 2.2-4.12 5.19h-2c-0.25 0.89-0.5 1.77-0.75 2.69-1.31 3.46-2.84 5.53-5.25 8.31-0.41 0.7-0.83 1.4-1.26 2.12-1.74 1.88-1.74 1.88-4.47 2.33-1.07-0.02-2.14-0.04-3.25-0.06-1.16-0.01-2.33-0.03-3.53-0.04-1.21-0.03-2.43-0.07-3.68-0.1-1.22-0.02-2.45-0.04-3.71-0.05-3.04-0.05-6.07-0.12-9.1-0.2 0.87-4.03 2.64-6.81 4.94-10.2 0.71-1.08 1.42-2.16 2.15-3.27 0.63-0.82 1.26-1.64 1.91-2.48h2c0.21-0.66 0.41-1.32 0.62-2 1.52-3.3 3.39-5.82 5.59-8.68 2.04-2.64 4.01-5.32 5.98-8.01 0.65-0.89 1.3-1.78 1.98-2.7 1.85-2.57 1.85-2.57 3.38-5.25 1.34-2.18 2.64-3.59 4.45-5.36 1.17-1.61 2.32-3.23 3.44-4.88 1.81-2.63 3.62-5.19 5.62-7.68 2.44-3.07 4.49-6.34 6.57-9.65 0.45-0.59 0.91-1.18 1.37-1.79h2c0.29-0.74 0.58-1.49 0.88-2.25 1.62-3.98 3.01-6.77 6.12-9.75l2-3h2c0.25-0.89 0.5-1.77 0.75-2.69 1.31-3.48 2.82-5.52 5.25-8.31 2.59-3.13 4.95-6.35 7.25-9.69 3.12-4.5 6.46-8.76 9.95-13 1.82-2.35 3.31-4.75 4.8-7.32 1.01-1.61 2.03-3.22 3.06-4.81 0.51-0.79 1.02-1.58 1.54-2.4 0.46-0.59 0.92-1.18 1.4-1.79h2c0.25-0.7 0.5-1.4 0.75-2.12 1.66-3.82 3.69-7.35 6.68-10.3 1.85-1.89 3.26-3.91 4.76-6.1 15.9-23 15.9-23 23.1-31.1 1.86-2.18 1.86-2.18 1.66-4.37-1.33-2.73-2.99-5.04-4.8-7.47-0.69-0.92-1.38-1.85-2.08-2.81-1.36-1.77-2.74-3.52-4.14-5.25-2.05-2.6-3.85-5.28-5.66-8.06-3.51-5.32-7.23-10.4-11.1-15.5-4.6-6.07-9.07-12.2-13.4-18.5-6.91-9.92-14.1-19.7-21.2-29.4-3-4.12-5.93-8.29-8.84-12.5-1.9-2.7-3.83-5.37-5.78-8.03-5.4-7.41-10.7-14.9-15.6-22.6-1.28-1.91-1.28-1.91-2.79-3.32-1.56-1.58-2.75-3.16-3.99-5-0.67-0.98-0.67-0.98-1.35-1.99-0.47-0.69-0.94-1.38-1.42-2.1-3.94-5.81-7.96-11.5-12.2-17.2-1.66-2.33-1.66-2.33-3.19-4.94-1.35-2.19-2.66-3.61-4.47-5.39-1.09-1.54-2.16-3.1-3.19-4.69-0.53-0.81-1.06-1.61-1.6-2.45-0.4-0.61-0.8-1.23-1.21-1.86 4.06-4.06 11.4-2.96 16.8-3.06 9.15 0.28 9.15 0.28 12.7 3.8 2.25 2.91 3.93 6.1 5.53 9.41 1.41 2.76 3.25 5.14 5.13 7.6 3.67 5.04 7.26 10.1 10.8 15.2 0.44 0.62 0.87 1.25 1.32 1.89 2.68 3.87 2.68 3.87 2.68 6.11h2c1.16 1.37 1.16 1.37 2.43 3.29 0.46 0.69 0.93 1.39 1.41 2.1 0.49 0.74 0.97 1.48 1.47 2.23 3.94 5.96 3.94 5.96 8.33 11.6 2.2 2.62 3.97 5.21 5.74 8.12 3.85 6.18 8.18 11.9 12.9 17.4 1.69 2.31 1.69 2.31 2.75 5.56 0.31 0.91 0.62 1.82 0.94 2.75 0.99 0.33 1.98 0.66 3 1 1.79 2.4 1.79 2.4 3.62 5.38 0.62 0.97 1.23 1.95 1.86 2.96 1.52 2.66 1.52 2.66 2.52 5.66h2c1.44 1.79 1.44 1.79 3 4.19 0.52 0.77 1.03 1.55 1.56 2.35 1.42 2.43 2.47 4.83 3.44 7.46h2c1.22 1.64 2.35 3.34 3.44 5.06 3.7 5.7 7.63 11.2 11.7 16.6 2.44 3.3 4.73 6.59 6.81 10.1 2.05 3.17 2.78 3.79 6.06 5.19 0.4-0.61 0.8-1.23 1.21-1.86 0.53-0.81 1.06-1.62 1.6-2.45 0.52-0.8 1.05-1.6 1.58-2.43 1.43-2.01 2.87-3.53 4.61-5.26 1.52-1.94 3.02-3.9 4.5-5.88 1.16-1.54 1.16-1.54 2.34-3.11 2.15-2.9 2.15-2.9 3.75-5.71 1.32-2.15 2.62-3.55 4.41-5.3 1.22-1.65 2.4-3.31 3.56-5 0.6-0.87 1.2-1.73 1.82-2.62 1.22-1.79 2.42-3.58 3.62-5.38h2c0.35-1.05 0.35-1.05 0.7-2.11 1.55-3.45 3.69-6.17 6.05-9.08 3.75-4.73 7.05-9.5 10-14.8 1.24-2 2.54-3.42 4.25-5.02 4.79-5.64 8.9-11.8 13-18h2c0.37-1.33 0.37-1.33 0.75-2.69 1.31-3.48 2.82-5.52 5.25-8.31 2.12-2.62 4.13-5.19 6-8h2c0.4-1.09 0.4-1.09 0.82-2.21 1.15-2.72 2.47-4.97 4.12-7.41 0.5-0.76 1.01-1.52 1.52-2.29 1.4-1.91 2.88-3.43 4.54-5.09 1.09-1.48 2.15-2.98 3.19-4.5 3.29-4.77 6.68-9.47 10.1-14.2 1.27-1.76 2.5-3.55 3.7-5.35h2c0.34-1.04 0.34-1.04 0.69-2.1 1.6-3.54 3.81-6.35 6.25-9.34 0.99-1.24 1.99-2.48 2.98-3.73 0.51-0.63 1.02-1.26 1.55-1.92 2.43-3.03 4.82-6.1 7.22-9.16 3.12-3.98 6.26-7.94 9.43-11.9 2.86-3.55 5.6-7.16 8.32-10.8 3.62-4.86 7.4-9.56 11.3-14.2 2.84-3.49 5.56-7.06 8.29-10.6 3.42-4.47 6.95-8.84 10.5-13.2 5.64-6.9 11.1-13.9 16.5-21 6.2-8.06 6.2-8.06 9.44-11.9 2.34-2.76 4.44-5.68 6.56-8.62 2.86-3.97 5.83-7.77 9-11.5 5.47-6.61 5.47-6.61 10.4-13.6 0.53-0.79 1.07-1.57 1.62-2.38h2c0.34-1.02 0.34-1.02 0.69-2.06 1.88-4.21 4.42-8.08 7.72-11.3 2.88-2.92 5.25-6.28 7.75-9.53 0.61-0.69 1.21-1.37 1.84-2.08h2l2-3z" fill="#0A0B0D"/>
<path transform="translate(173 423)" d="m0 0c1.18-0.06 2.35-0.12 3.56-0.19 8.49-0.11 8.49-0.11 11.7 2.84 1.54 2.31 2.75 4.6 3.94 7.1 0.94 1.49 1.89 2.97 2.87 4.44 2.13 3.31 2.13 3.31 2.13 5.56h2c1.26 1.84 1.26 1.84 2.69 4.37 2.7 4.69 5.68 9.05 8.89 13.4 1.42 2.23 1.42 2.23 1.93 4.46 0.16 0.58 0.32 1.17 0.49 1.77 0.99 0.33 1.98 0.66 3 1 1.5 2.25 2.86 4.46 4.19 6.81 3.56 6.15 7.33 12 11.4 17.9 1.44 2.29 1.44 2.29 1.44 4.29 1.48 0.5 1.48 0.5 3 1 1.61 2.41 1.61 2.41 3.31 5.5 3.01 5.35 6.23 10.4 9.69 15.5 1.46 2.14 2.92 4.29 4.37 6.44 0.69 1.01 1.38 2.02 2.09 3.06 1.54 2.5 1.54 2.5 1.54 4.5 1.48 0.5 1.48 0.5 3 1 1.36 1.9 1.36 1.9 2.75 4.37 2.81 4.91 5.82 9.65 8.93 14.4 1.32 2.25 1.32 2.25 1.32 4.25 0.99 0.33 1.98 0.66 3 1 1.14 1.46 1.14 1.46 2.25 3.37 2.64 4.46 5.45 8.79 8.29 13.1 1.46 2.52 1.46 2.52 1.97 4.79 0.24 0.85 0.24 0.85 0.49 1.73 0.99 0.33 1.98 0.66 3 1 1.36 1.9 1.36 1.9 2.75 4.37 2.81 4.91 5.82 9.65 8.93 14.4 1.32 2.25 1.32 2.25 1.32 4.25 0.99 0.33 1.98 0.66 3 1 1.93 2.6 3.57 5.27 5.2 8.06 3.16 5.39 6.55 10.6 10.1 15.7 3.65 5.27 7.26 10.6 10.8 15.9 0.71 1.09 1.43 2.19 2.16 3.32 1.56 2.63 2.75 5.12 3.78 7.99h2c1.6 2.37 3.1 4.73 4.56 7.19 4.56 7.47 9.38 14.7 14.4 21.8 1.27 1.81 2.54 3.62 3.81 5.44 0.52 0.74 1.04 1.48 1.58 2.24 3.02 4.36 5.92 8.79 8.75 13.3 3.22 5.07 6.52 10 10.1 14.9 8.75 11.8 8.75 11.8 8.75 16.2 0.99 0.33 1.98 0.66 3 1 1.46 2.02 2.77 4 4.06 6.13 0.8 1.28 1.6 2.56 2.41 3.84 0.41 0.66 0.83 1.33 1.25 2.01 2.06 3.26 4.2 6.45 6.34 9.65 0.41 0.62 0.83 1.24 1.25 1.88 2.02 3.01 4.04 6.01 6.1 9 0.73 1.07 1.46 2.14 2.21 3.24 0.65 0.94 1.31 1.89 1.98 2.86 1.4 2.39 1.4 2.39 1.4 5.39 0.99 0.33 1.98 0.66 3 1 1.43 1.97 2.71 3.94 4 6 0.99 1.5 1.99 3 3 4.5l3 4.5c0.62 0.92 1.24 1.85 1.88 2.8 2.39 3.61 4.66 7.27 6.93 11 3.42 5.52 6.95 10.9 10.8 16.1 1.49 2.28 2.45 4.55 3.38 7.11h2c1.2 1.85 2.31 3.76 3.37 5.69 2.27 4.1 4.65 7.69 7.63 11.3 0.94 1.38 1.86 2.77 2.75 4.19 0.64 1.01 0.64 1.01 1.29 2.04 0.96 1.77 0.96 1.77 0.96 3.77h2c1.16 1.76 2.3 3.52 3.38 5.33 4.93 8.15 10.2 16.1 15.7 23.9 2.58 3.65 5.11 7.33 7.65 11 0.46 0.67 0.92 1.35 1.4 2.04 2.67 3.88 5.3 7.78 7.91 11.7 6.78 10.2 6.78 10.2 13.8 20.4 5.3 7.54 10.3 15.2 15.1 23.1 0.75 1.21 0.75 1.21 1.52 2.44 0.47 0.76 0.93 1.52 1.41 2.3 0.42 0.69 0.85 1.38 1.28 2.08 0.92 1.74 0.92 1.74 0.92 3.74-3.07-1.34-4.87-2.71-6.96-5.31-0.8-0.99-0.8-0.99-1.61-2-0.56-0.7-1.11-1.4-1.68-2.13-0.58-0.72-1.15-1.43-1.74-2.17-10.8-13.6-10.8-13.6-14.5-20-1.35-2.19-2.66-3.59-4.47-5.39-1.38-1.94-2.73-3.9-4.07-5.87-3.61-5.33-7.43-10.4-11.4-15.5-2.96-3.82-5.7-7.73-8.28-11.8-1.18-1.81-1.18-1.81-2.64-3.16-1.74-1.77-3.16-3.62-4.62-5.63-0.57-0.78-1.14-1.56-1.73-2.37-0.6-0.83-1.2-1.66-1.83-2.51-6.29-8.6-12.7-17.1-19.3-25.5-4.26-5.38-8.18-11-12-16.6-1.94-2.78-3.98-5.4-6.11-8.02-5.67-7.3-11.3-14.6-16.8-22-1.44-1.93-2.89-3.85-4.34-5.77-4.54-5.99-8.95-12-13.3-18.2-0.52-0.73-1.04-1.46-1.58-2.21-0.73-1.04-0.73-1.04-1.48-2.1-0.43-0.62-0.87-1.23-1.32-1.87-1.18-1.82-1.18-1.82-2.15-3.86-1.1-2.09-2.34-3.33-4.03-4.96-0.83-1.13-1.62-2.29-2.38-3.47-0.43-0.65-0.85-1.31-1.29-1.98-0.89-1.37-1.78-2.73-2.66-4.1-0.43-0.65-0.86-1.31-1.3-1.98-0.38-0.59-0.77-1.19-1.16-1.8-1.18-1.72-1.18-1.72-2.77-3.21-2.12-2.15-3.11-4.76-4.44-7.46-1.19-1.74-2.42-3.44-3.69-5.13-3.57-4.82-6.93-9.75-10.2-14.8-2.19-3.29-4.44-6.55-6.7-9.8-2.49-3.58-4.96-7.17-7.37-10.8-5.09-7.68-10.4-15.2-15.7-22.8-2.6-3.71-5.14-7.47-7.63-11.2-1.31-1.95-2.64-3.87-3.99-5.78-0.4-0.57-0.8-1.15-1.22-1.74-1.17-1.65-2.34-3.31-3.52-4.96-1.71-2.65-2.92-5.05-3.95-8.02h-2c-1.45-2.04-2.77-4.06-4.07-6.19-0.81-1.3-1.62-2.59-2.44-3.89-0.62-0.99-0.62-0.99-1.26-2-2.52-3.93-5.24-7.74-7.92-11.6-2.47-3.55-4.86-7.16-7.25-10.8-3.7-5.58-7.53-11.1-11.4-16.5-3.37-4.69-6.58-9.47-9.76-14.3-3.8-5.71-7.79-11.3-11.8-16.9-0.53-0.73-1.05-1.47-1.59-2.23-1.04-1.45-2.09-2.9-3.13-4.35-3.07-4.31-5.73-8.67-8.17-13.4-1.2-2-2.5-3.37-4.18-4.97-1.25-1.75-2.45-3.52-3.63-5.31-1.04-1.59-1.04-1.59-2.11-3.21-1.58-2.41-3.13-4.84-4.68-7.28-0.6-0.94-0.6-0.94-1.21-1.9-0.78-1.22-1.55-2.44-2.31-3.67-1.82-2.86-3.65-5.27-6.06-7.63-1.1-1.64-2.16-3.31-3.19-5-2.47-3.95-5.04-7.76-7.81-11.5-3.31-4.48-6.32-9.07-9.27-13.8-2.27-3.56-4.7-6.99-7.15-10.4-1.58-2.29-1.58-2.29-3.1-4.89-1.35-2.18-2.67-3.63-4.48-5.4-1.25-1.89-2.38-3.82-3.53-5.77-1.27-1.92-2.59-3.61-4.06-5.37-0.8-0.94-1.59-1.89-2.41-2.86-0.01 0.82-0.01 0.82-0.01 1.67-0.1 32.9-0.21 65.9-0.32 98.8-0.02 4-0.03 8-0.04 12-0.01 0.79-0.01 1.59-0.01 2.41-0.05 12.7-0.09 25.4-0.13 38.1-0.04 13.1-0.08 26.3-0.13 39.4-0.03 7.33-0.05 14.7-0.07 22-0.12 41.9-0.59 83.7-1.29 126-2.9 0.05-5.79 0.09-8.69 0.13-0.82 0.01-1.63 0.03-2.47 0.05-0.8 0-1.6 0.01-2.42 0.02-0.72 0.01-1.45 0.02-2.2 0.03-2.67-0.28-4.78-1.15-7.22-2.23-0.07-46.7-0.12-93.4-0.16-140 0-5.51 0-11-0.01-16.5v-3.33c-0.01-17.8-0.04-35.6-0.06-53.3-0.03-18.2-0.05-36.5-0.05-54.7-0.01-11.3-0.02-22.5-0.05-33.8-0.01-7.71-0.02-15.4-0.01-23.1 0-4.46 0-8.91-0.02-13.4-0.01-4.07-0.02-8.14-0.01-12.2 0.01-1.48 0-2.96-0.01-4.44-0.01-2 0-4 0.01-6 0-1.11 0-2.23-0.01-3.37 0.38-2.73 0.38-2.73 1.74-4.58 3.93-2.75 9.83-1.84 14.4-1.9z" fill="#0A0B0D"/>
<path transform="translate(1052 424)" d="m0 0c1.47-0.01 1.47-0.01 2.96-0.02 1.09 0.01 2.17 0.01 3.28 0.01 1.15 0 2.29 0 3.47-0.01 3.18-0.01 6.37-0.01 9.55 0 3.43 0 6.86-0.01 10.3-0.02 6.73-0.01 13.4-0.01 20.2-0.01h16.4 2.35c1.58-0.01 3.16-0.01 4.73-0.01 14.8-0.01 29.6-0.01 44.4 0 13.6 0.01 27.1-0.01 40.7-0.03 13.9-0.01 27.8-0.02 41.7-0.02 7.81 0 15.6 0 23.4-0.01 6.65-0.02 13.3-0.02 20-0.01 3.39 0.01 6.79 0.01 10.2 0 3.67-0.01 7.35 0 11 0.01 1.08-0.01 2.16-0.01 3.28-0.02 1.47 0.01 1.47 0.01 2.96 0.02h2.58c0.67 0.12 1.34 0.25 2.04 0.37 2 3 2 3 2 20l-130 1v351c-22 0-22 0-24-1l-1-350-128-1c-2.1-2.1-1.19-6.54-1.19-9.43-0.01-0.79-0.03-1.58-0.04-2.4 0-2.05 0.1-4.11 0.23-6.17 2.48-2.48 3.19-2.25 6.61-2.25z" fill="#0A0B0D"/>
<path transform="translate(1466 692)" d="m0 0c4.3 3.9 7.77 9.75 8.09 15.6-0.05 0.71-0.1 1.42-0.16 2.15-8.01 0.79-8.01 0.79-11.8-2.18-1.11-1.4-1.11-1.4-2.25-2.82-4.39-4.72-4.39-4.72-10.5-6.13-4.95 0.01-9.66 0.08-14.5 1.13l-1 3c-0.49 0.44-0.99 0.87-1.5 1.32-2.17 2.44-2.3 4.47-2.5 7.68 0.35 2.29 0.35 2.29 2 4 6.46 3.14 13.3 4.83 20.2 6.67 9.72 2.66 16.4 5.4 21.9 14.1 2.36 6.05 1.98 15.7-0.62 21.7-0.49 0.85-0.99 1.69-1.5 2.56h-2c-0.49 1.49-0.49 1.49-1 3-3.2 4.24-6.97 5.15-12 6-3.48 0.29-6.94 0.33-10.4 0.32-0.89 0.01-1.78 0.03-2.7 0.05-10.6 0-18.1-3.14-25.9-10.4-3.26-3.95-3.29-6.94-3-12 3.22-1.61 6.53-1.74 10-1 2.13 2.75 2.13 2.75 4 6 7.19 5.63 14.1 6.86 23 6 4.01-1.05 7.38-2.72 10-6 0.9-4.3 0.53-7.99-1.5-11.9-5.22-4.44-12-5.58-18.5-7.13-2.35-0.6-4.68-1.27-7-2-1.04-0.3-2.08-0.6-3.15-0.92-10.1-3.32-10.1-3.32-13.1-8.83-0.6-1.4-1.19-2.82-1.75-4.25l-1-1c-0.58-8.14 1.31-15.2 6-22 12.5-9.84 30.5-11.6 44.1-2.75z" fill="#0A0B0D"/>
<path transform="translate(1393 689)" d="m0 0c0.8 0.02 1.59 0.03 2.41 0.05 1.97 0.2 1.97 0.2 2.97 1.2 0.16 2.54 0.25 5.05 0.31 7.59 0.02 0.78 0.04 1.56 0.06 2.37 0.05 1.66 0.09 3.33 0.13 4.99 0.06 2.48 0.12 4.97 0.19 7.45 0.2 7.97 0.34 15.9 0.35 23.9v2.06c-0.05 19.7-0.05 19.7-6.57 27.4-6.5 5.71-15.2 5.23-23.4 4.84-6.51-0.62-11.5-2.95-16.1-7.66-3.1-4.44-3.74-7.67-4-13 3-3.01 5.82-2.6 10-3 0.37 0.54 0.75 1.09 1.13 1.64 3.99 5.81 3.99 5.81 9.87 9.36 4.35 0.5 8.3 0.92 12.2-1.21 2.73-2.79 2.72-5.77 2.86-9.57-0.02-1.01-0.03-2.02-0.04-3.06-0.01-1.16-0.02-2.31-0.03-3.49-0.01-1.24-0.03-2.47-0.04-3.74-0.02-2.61-0.04-5.23-0.05-7.84-0.03-4.12-0.07-8.24-0.12-12.4-0.04-3.97-0.06-7.95-0.08-11.9-0.02-1.23-0.04-2.47-0.06-3.75 0-1.71 0-1.71-0.01-3.46-0.01-1.01-0.02-2.02-0.03-3.06 0.36-2.53 0.36-2.53 1.74-4.36 2.17-1.57 3.59-1.51 6.24-1.42z" fill="#0A0B0D"/>
<path transform="translate(1332,754)" d="m0 0c2.29 2.37 2.99 4 3.02 7.3-0.2 2.31-0.4 4.46-1.02 6.7-3.45 1.73-7.22 1.36-11 1-2.56-1.06-2.56-1.06-4-3-0.62-4.2-0.47-6.26 1.81-9.88 3.64-3.53 6.47-3.5 11.2-2.12z" fill="#0A0B0D"/>
</svg>
